<?xml version="1.0" encoding="utf-8" ?><svg xmlns="http://www.w3.org/2000/svg" xmlns:xlink="http://www.w3.org/1999/xlink" width="2345" height="544" viewBox="0 0 2345 544"><path fill="#1F2644" transform="matrix(4.77597 0 0 4.77193 0 0.00012207)" d="M323.175 39.8505C323.278 39.8373 323.381 39.8256 323.484 39.8155C328.962 39.2601 335.039 40.3576 339.39 43.9161C341.961 46.048 343.796 48.9354 344.633 52.1688C345.597 55.7414 345.428 60.9996 345.428 64.7749L345.404 82.7569C345.4 85.9183 345.259 90.2417 345.568 93.2633C342.655 92.889 336.794 93.0805 333.646 93.1018C333.584 91.9847 333.653 90.4983 333.674 89.3532C326.112 94.077 318.382 95.7303 310.04 91.2353C306.066 89.094 303.889 85.8625 302.702 81.554C301.016 76.7143 303.037 69.5063 306.645 65.9652C313.494 59.2422 325.165 60.1997 334.015 60.1848C333.537 57.6121 332.705 54.5391 330.359 53.2084C322.688 48.8571 315.621 53.4642 311.431 59.1921C308.837 56.8348 305.285 53.2059 302.882 50.6842C308.68 44.2513 314.414 40.6587 323.175 39.8505ZM323.062 82.4872C327.47 81.7542 330.839 80.0325 333.776 76.5585C333.748 74.7428 333.661 72.6122 333.846 70.8331C330.991 70.7696 328.135 70.7843 325.281 70.877C321.157 71.0973 314.164 71.4549 314.11 77.5545C314.076 81.3205 318.642 82.8199 321.945 82.596C322.318 82.5697 322.691 82.5334 323.062 82.4872Z"/><path fill="#1F2644" transform="matrix(4.77597 0 0 4.77193 0 0.00012207)" d="M150.315 39.8457C156.411 39.4382 162.234 40.1295 167.077 44.2719C169.402 46.2765 171.078 48.9271 171.892 51.8867C172.95 55.7533 172.685 61.3302 172.683 65.4345L172.672 82.6605C172.671 85.8877 172.566 90.0369 172.812 93.1689C170.12 92.9574 163.717 93.0115 161.031 93.2189L161.01 89.3932C153.51 93.9206 146.08 95.6664 137.791 91.5076C133.791 89.5002 131.462 86.4404 130.142 82.1868C128.782 76.4712 129.501 70.4129 133.796 66.1076C140.575 59.3108 152.26 60.1753 161.151 60.1713C160.869 57.3853 160.355 55.5604 158.087 53.5847C156.053 51.8127 153.02 51.3585 150.392 51.6322C144.602 52.235 142.047 54.9579 138.585 59.1412C136.763 57.5799 131.68 52.3805 130.109 50.6053C136.6 44.2765 140.847 40.8038 150.315 39.8457ZM142.269 80.2409C144.29 82.0894 146.017 82.7401 148.821 82.6165C149.319 82.5925 149.817 82.5547 150.313 82.5034C154.597 81.8077 158.166 79.946 161.027 76.6173C161.032 74.7177 161.008 72.734 161.055 70.8426C158.188 70.7743 155.32 70.7847 152.454 70.8738C146.651 71.2348 139.224 72.1004 142.269 80.2409Z"/><path fill="#1F2644" transform="matrix(4.77597 0 0 4.77193 0 0.00012207)" d="M394.577 40.6485L395.013 40.7061C395.774 41.723 395.403 48.4436 395.395 50.1127L395.375 78.0124C395.367 81.3174 395.156 90.4218 395.559 93.2698C393.217 92.8698 385.465 93.106 382.7 93.1402C382.654 91.0042 382.685 89.6712 382.876 87.5461C378.728 91.6432 372.701 94.0597 366.922 93.7832C346.946 92.8277 349.063 72.8335 349.108 59.125C349.135 52.9706 349.106 46.8161 349.02 40.6622C352.999 40.7911 357.836 40.711 361.8 40.6225C361.385 48.3284 361.969 57.2889 361.69 65.1111C361.678 70.0126 361.308 76.5219 365.131 80.2627C368.898 83.949 376.026 83.1451 379.566 79.578C380.946 78.2135 381.897 76.4761 382.303 74.5789C382.935 71.7227 382.734 64.7161 382.727 61.5754L382.659 40.7592C386.546 40.6369 390.671 40.6756 394.577 40.6485Z"/><path fill="#1F2644" transform="matrix(4.77597 0 0 4.77193 0 0.00012207)" d="M415.525 39.821C423.825 38.7043 433.738 42.516 438.746 49.3212C436.198 52.0213 433.859 54.5309 431.452 57.3524C430.601 56.5691 429.74 55.7984 428.867 55.0404C424.811 51.5678 417.785 48.3569 412.8 52.807C411.184 54.2558 412.609 57.6769 414.176 58.3956C423.258 62.5599 437.205 62.8205 438.474 75.8372C438.911 79.9955 437.642 84.1531 434.956 87.3581C431.425 91.6165 426.114 93.303 420.79 93.8022C411.306 93.9364 403.55 91.5894 397.756 83.6441C400.113 81.9162 403.934 78.281 406.433 76.2336C410.818 81.7758 414.876 83.3147 422.022 82.7848C424.227 82.6213 427.325 79.7102 426.572 77.6857C424.911 73.22 416.369 72.7412 412.563 71.049C410.115 69.9938 408.253 69.4615 406.104 67.866C399.143 63.526 397.384 53.8804 402.15 47.221C405.493 42.5494 409.92 40.811 415.525 39.821Z"/><path fill="#1F2644" transform="matrix(4.77597 0 0 4.77193 0 0.00012207)" d="M298.496 20.6402C299.01 20.6393 298.831 20.5911 299.257 21.0078C299.544 23.2711 299.368 29.6343 299.357 32.0943L299.317 52.9329L299.332 79.0696C299.333 82.3608 299.512 90.1506 299.057 93.0032C297.328 93.4238 289.005 93.1155 286.605 93.1472C286.764 85.083 286.638 76.5255 286.637 68.4253L286.602 20.7644C290.468 20.6328 294.608 20.6716 298.496 20.6402Z"/><path fill="#1F2644" transform="matrix(4.77597 0 0 4.77193 0 0.00012207)" d="M79.3343 2.51068C86.6046 1.24866 81.6238 11.9201 80.2798 14.7839C79.225 17.0313 78.7407 19.3772 76.5057 20.7461C68.9973 21.6261 74.1847 12.1944 75.4289 8.87639C76.2648 6.64736 77.2954 3.80865 79.3343 2.51068Z"/><path fill="#1F2644" transform="matrix(4.77597 0 0 4.77193 0 0.00012207)" d="M91.1164 17.9617C92.3635 17.9842 93.1369 18.1781 93.9997 19.1297C96.9146 22.3444 91.1777 25.8431 89.0448 27.5749C88.1564 28.2964 86.9148 29.0927 85.8761 29.5093C83.8979 29.227 81.3857 27.7376 82.3728 25.461C83.5586 22.7262 88.4573 19.1826 91.1164 17.9617Z"/><path fill="#1F2644" transform="matrix(4.77597 0 0 4.77193 0 0.00012207)" d="M60.542 6.74175C63.032 6.67639 64.3125 7.90079 64.7297 10.3503C65.2919 13.6511 66.9963 18.8142 63.535 20.7923C61.8121 20.833 60.6413 20.816 59.7823 19.0594C58.4022 16.2373 57.9271 11.9371 58.4451 8.83269C58.6201 7.78343 59.7405 7.19058 60.542 6.74175Z"/><path fill="#1F2644" transform="matrix(4.77597 0 0 4.77193 0 0.00012207)" d="M29.8838 21.1717C40.4325 5.02177 50.8611 24.7307 59.4739 31.6013C60.6568 29.1419 62.0311 27.5765 64.7417 26.6176C67.2321 25.7479 69.9645 25.8916 72.3499 27.0179C75.4015 28.4771 89.2348 42.8842 91.6677 46.3011C93.4161 48.7565 94.9617 51.8036 95.9748 54.7222C99.0851 63.6966 98.4974 73.5396 94.3414 82.0802C91.7079 87.512 87.4803 92.5657 82.4526 95.8449C79.7775 97.5897 76.7301 98.7838 73.9996 100.439C69.5743 103.427 65.9769 106.144 60.8521 107.919C52.2283 110.83 42.8042 110.218 34.6289 106.218C31.9623 104.936 29.4508 103.355 27.1432 101.503C25.0637 99.807 22.9537 97.6755 21.0805 95.7397C14.9101 89.3631 8.2647 83.3869 2.34441 76.7889C1.04052 75.3357 0.887503 74.0915 0 72.753L0 68.7655C0.192044 68.4901 0.816808 67.0718 1.06068 66.6382C2.33399 64.3742 3.38261 63.3595 5.30278 61.6972C2.53691 59.2229 1.52883 57.8159 0 54.4918L0 50.5432C1.64346 47.1374 2.32843 45.7669 5.49004 43.5329C3.98741 40.662 3.16887 38.0735 4.17934 34.8433C4.91343 32.4965 6.4744 30.5244 8.6718 29.3965C11.9946 27.6909 15.4278 28.7589 16.2612 28.3668C18.095 27.5043 18.8955 17.6971 29.8838 21.1717Z"/><path fill="#FEDE49" transform="matrix(4.77597 0 0 4.77193 0 0.00012207)" d="M38.6779 20.011C41.7214 20.0002 48.7758 28.0637 51.1022 30.4409C55.9249 35.3883 60.7739 40.3102 65.6489 45.2061C68.2162 47.7947 70.7617 50.4081 73.3982 52.9255C74.5295 54.0057 75.656 54.5042 76.9298 53.279C79.4742 48.2263 59.0408 39.2079 64.7526 32.7605C67.3886 29.785 70.3696 31.4046 72.7003 33.8372C77.7928 39.1522 83.75 44.1534 88.0216 50.1741C95.839 61.8563 93.8462 77.5286 84.4005 87.4954C78.9098 93.2729 71.3432 96.6243 63.3749 96.8081C54.2903 97.0378 46.9653 93.5647 40.6224 87.2835C36.3164 83.0195 32.0814 78.7262 27.8141 74.4009C25.1385 71.5658 21.9121 68.9198 19.4724 65.8953C17.1189 62.9776 18.1145 58.6494 22.311 58.6586C24.6761 58.6637 25.5576 59.6907 27.0961 61.2122C28.9074 63.054 37.2547 72.099 38.8941 72.3179C39.7283 72.211 39.8611 72.1335 40.4687 71.549C41.7886 68.9522 36.7701 65.0383 34.9917 63.305C31.3758 59.7599 27.7956 56.1786 24.2517 52.5617C21.5646 49.8582 15.608 45.677 19.4959 41.5497C23.4987 37.3004 29.5409 45.3283 32.3582 48.1817L45.1539 61.1044C45.8135 61.7582 47.2755 63.1525 48.2131 63.0921C49.4588 62.9921 50.3694 61.3465 49.651 60.268C48.2554 58.1728 46.0236 56.1977 44.2335 54.4119L30.3969 40.6353C28.286 38.5328 22.0894 33.0616 21.8611 30.4545C21.772 29.3119 22.1415 28.1809 22.8881 27.3114C26.9086 22.5471 32.5757 30.2316 35.4046 33.0829L48.1586 45.943C49.9363 47.7358 55.4049 54.0829 57.7717 53.8987C59.051 53.2415 59.5183 52.0681 58.6136 50.7274C55.2157 45.6921 35.9552 29.872 34.6251 25.5262C34.33 24.5904 34.419 23.5755 34.8725 22.7053C35.6943 21.1624 37.1116 20.5025 38.6779 20.011Z"/><path fill="#1F2644" transform="matrix(4.77597 0 0 4.77193 0 0.00012207)" d="M190.035 45.6382C195.306 41.2923 200.081 39.4949 206.982 40.1168C230.386 42.2256 236.053 75.009 219.409 88.6449C214.682 92.5325 208.586 94.3483 202.502 93.6811C197.736 93.201 193.739 91.3468 190.023 88.3701C189.996 92.0344 190.53 111.671 189.632 113.644C189.577 113.765 189.527 113.884 189.462 114L177.689 114C176.968 111.941 177.243 97.5063 177.245 94.6384L177.259 59.6277C177.26 53.7751 177.453 46.4579 177.184 40.7054C180.507 40.7021 186.992 40.8959 190.065 40.6191C190.023 42.3207 189.978 43.9368 190.035 45.6382ZM204.766 81.7439C222.045 78.9727 220.376 50.8302 201.633 51.849C184.04 55.1712 185.842 82.8686 204.766 81.7439Z"/><path fill="#1F2644" transform="matrix(4.77597 0 0 4.77193 0 0.00012207)" d="M244.486 45.5502C246.559 44.0743 248.487 42.6419 250.852 41.6795C261.248 37.4486 272.362 41.2479 278.672 50.2739C286.958 62.1239 284.618 81.2854 272.678 89.6689C267.651 93.178 261.433 94.539 255.401 93.4507C251.389 92.7359 247.668 90.8464 244.477 88.3418C244.644 91.7085 245.073 112.022 244.211 113.768C244.197 113.796 244.184 113.826 244.17 113.855C244.134 113.927 244.135 113.921 244.087 114L232.417 114C231.45 112.215 231.823 86.915 231.831 83.0165C231.745 68.91 231.778 54.8031 231.929 40.6972L244.652 40.697C244.621 42.3056 244.612 43.9496 244.486 45.5502ZM259.24 81.747C276.676 79.1284 275.018 50.9782 256.39 51.8408C239.069 54.737 239.969 82.472 259.24 81.747Z"/><path fill="#1F2644" transform="matrix(4.77597 0 0 4.77193 0 0.00012207)" d="M489.3 84.8646C475.769 99.6172 447.104 95.9544 441.459 75.1307C437.672 61.1569 444.41 44.6349 459.183 40.8185C466.015 39.0534 472.794 39.1658 478.969 42.8755C486.576 47.3793 488.85 52.7642 491 60.8746L491 70.4759C479.059 70.864 465.285 70.5826 453.212 70.5822C453.961 72.9077 455.13 75.8595 456.952 77.5186C465.184 85.0152 475.415 82.7651 482.661 75.9168C484.637 78.1737 487.464 82.3214 489.3 84.8646ZM453.739 59.9816L466.625 59.9219C469.888 59.9226 475.185 60.0962 478.282 59.8822C475.817 54.0774 471.97 51.2558 465.497 51.6126C458.908 52.4042 456.767 54.3319 453.739 59.9816Z"/></svg>